# xmcd
#
# Track frame offsets: 
#        150
#        14321
#        35042
#        56184
#        80782
#        100474
#        117038
#        132245
#        151499
#        167268
#        201250
#
# Disc length: 3340 seconds
#
# Revision: 0
# Processed by: cddbd v1.5.2PL0 Copyright (c) Steve Scherf et al.
# Submitted via: ExactAudioCopy v0.99pb4
#
DISCID=930d0a0b
DTITLE=Roy Young - Memphis
DYEAR=2007
DGENRE=Soul
TTITLE0=Don't call It Love
TTITLE1=So Strange
TTITLE2=Everybody hurts
TTITLE3=Half past July
TTITLE4=The age of Sadness
TTITLE5=Lamplighter
TTITLE6=Jambitious
TTITLE7=Turn right at Midnight
TTITLE8=Beautiful
TTITLE9=Bring in the dawn
TTITLE10=The Memphis session Video
EXTD=
EXTT0=
EXTT1=
EXTT2=
EXTT3=
EXTT4=
EXTT5=
EXTT6=
EXTT7=
EXTT8=
EXTT9=
EXTT10=
PLAYORDER=
